<svg width="1200" height="700" viewBox="0 0 1200 700" xmlns="http://www.w3.org/2000/svg" role="img" aria-label="RAG-Based Q&amp;A System thumbnail">
  <defs>
    <linearGradient id="bg2" x1="0" y1="0" x2="1" y2="1">
      <stop offset="0%" stop-color="#1b1231" />
      <stop offset="100%" stop-color="#0f2040" />
    </linearGradient>
    <linearGradient id="cards" x1="0" y1="0" x2="1" y2="1">
      <stop offset="0%" stop-color="#8b5cf6" />
      <stop offset="100%" stop-color="#38bdf8" />
    </linearGradient>
  </defs>

  <rect width="1200" height="700" fill="url(#bg2)" />
  <circle cx="990" cy="60" r="180" fill="#38bdf8" opacity="0.16" />
  <circle cx="170" cy="650" r="220" fill="#a78bfa" opacity="0.14" />

  <g transform="translate(130,220)">
    <rect x="0" y="0" width="270" height="320" rx="14" fill="#0b1224" opacity="0.88" />
    <rect x="30" y="40" width="210" height="16" rx="8" fill="#7dd3fc" opacity="0.85" />
    <rect x="30" y="82" width="190" height="12" rx="6" fill="#93c5fd" opacity="0.7" />
    <rect x="30" y="114" width="160" height="12" rx="6" fill="#93c5fd" opacity="0.7" />
    <rect x="30" y="146" width="200" height="12" rx="6" fill="#93c5fd" opacity="0.7" />
  </g>

  <g transform="translate(470,210)">
    <rect x="0" y="0" width="290" height="330" rx="16" fill="url(#cards)" opacity="0.88" />
    <text x="38" y="86" fill="#ffffff" font-size="34" font-family="Segoe UI, Arial, sans-serif" font-weight="700">What is RAG?</text>
    <rect x="36" y="118" width="220" height="4" rx="2" fill="#e0f2fe" opacity="0.8" />
    <text x="38" y="180" fill="#ecfeff" font-size="24" font-family="Segoe UI, Arial, sans-serif">Retrieve + Generate</text>
    <text x="38" y="220" fill="#ecfeff" font-size="24" font-family="Segoe UI, Arial, sans-serif">Context-aware answers</text>
    <text x="38" y="260" fill="#ecfeff" font-size="24" font-family="Segoe UI, Arial, sans-serif">Vector semantic search</text>
  </g>

  <g transform="translate(830,220)">
    <rect x="0" y="0" width="240" height="320" rx="14" fill="#0b1224" opacity="0.88" />
    <rect x="28" y="36" width="184" height="26" rx="8" fill="#22d3ee" opacity="0.8" />
    <rect x="28" y="90" width="184" height="170" rx="10" fill="#111827" stroke="#67e8f9" stroke-width="2" />
    <circle cx="54" cy="114" r="8" fill="#34d399" />
    <rect x="70" y="106" width="126" height="14" rx="7" fill="#86efac" opacity="0.85" />
    <circle cx="54" cy="148" r="8" fill="#60a5fa" />
    <rect x="70" y="140" width="102" height="14" rx="7" fill="#93c5fd" opacity="0.85" />
    <circle cx="54" cy="182" r="8" fill="#c084fc" />
    <rect x="70" y="174" width="130" height="14" rx="7" fill="#d8b4fe" opacity="0.85" />
  </g>

  <text x="86" y="104" fill="#f8fafc" font-size="44" font-family="Segoe UI, Arial, sans-serif" font-weight="700">RAG-Based Q&amp;A System</text>
  <text x="86" y="146" fill="#c4b5fd" font-size="24" font-family="Segoe UI, Arial, sans-serif">Vector retrieval + LLM generation for document intelligence</text>
</svg>
